<mxfile host="app.diagrams.net" modified="2023-07-16T16:44:12.205Z" agent="Mozilla/5.0 (Windows NT 10.0; Win64; x64) AppleWebKit/537.36 (KHTML, like Gecko) Chrome/114.0.0.0 Safari/537.36" etag="KVfnpNHxjsfAuV6BU1mZ" version="21.6.2" type="device">
  <diagram name="Page-1" id="nz9omaOj6CGajWKw-ihR">
    <mxGraphModel dx="875" dy="442" grid="1" gridSize="10" guides="1" tooltips="1" connect="1" arrows="1" fold="1" page="1" pageScale="1" pageWidth="827" pageHeight="1169" math="0" shadow="0">
      <root>
        <mxCell id="0" />
        <mxCell id="1" parent="0" />
        <mxCell id="yL9IyS-EngI_jeP4piYf-45" value="" style="group" vertex="1" connectable="0" parent="1">
          <mxGeometry x="40" y="30" width="500.25" height="320" as="geometry" />
        </mxCell>
        <mxCell id="yL9IyS-EngI_jeP4piYf-9" value="Game" style="html=1;whiteSpace=wrap;" vertex="1" parent="yL9IyS-EngI_jeP4piYf-45">
          <mxGeometry x="220" width="110" height="50" as="geometry" />
        </mxCell>
        <mxCell id="yL9IyS-EngI_jeP4piYf-10" value="Object" style="html=1;whiteSpace=wrap;" vertex="1" parent="yL9IyS-EngI_jeP4piYf-45">
          <mxGeometry x="40.75" y="90" width="110" height="50" as="geometry" />
        </mxCell>
        <mxCell id="yL9IyS-EngI_jeP4piYf-12" value="SceneGraph" style="html=1;whiteSpace=wrap;" vertex="1" parent="yL9IyS-EngI_jeP4piYf-45">
          <mxGeometry x="220.75" y="90" width="110" height="50" as="geometry" />
        </mxCell>
        <mxCell id="yL9IyS-EngI_jeP4piYf-13" value="GUI" style="html=1;whiteSpace=wrap;" vertex="1" parent="yL9IyS-EngI_jeP4piYf-45">
          <mxGeometry x="390.25" y="90" width="110" height="50" as="geometry" />
        </mxCell>
        <mxCell id="yL9IyS-EngI_jeP4piYf-14" value="Module" style="html=1;whiteSpace=wrap;" vertex="1" parent="yL9IyS-EngI_jeP4piYf-45">
          <mxGeometry x="40.75" y="180" width="110" height="50" as="geometry" />
        </mxCell>
        <mxCell id="yL9IyS-EngI_jeP4piYf-15" value="SceneNode" style="html=1;whiteSpace=wrap;" vertex="1" parent="yL9IyS-EngI_jeP4piYf-45">
          <mxGeometry x="221" y="180" width="110" height="50" as="geometry" />
        </mxCell>
        <mxCell id="yL9IyS-EngI_jeP4piYf-16" value="Control" style="html=1;whiteSpace=wrap;" vertex="1" parent="yL9IyS-EngI_jeP4piYf-45">
          <mxGeometry x="390" y="180" width="110" height="50" as="geometry" />
        </mxCell>
        <mxCell id="yL9IyS-EngI_jeP4piYf-17" value="" style="endArrow=diamondThin;endFill=1;endSize=24;html=1;rounded=0;entryX=0.5;entryY=0;entryDx=0;entryDy=0;" edge="1" parent="yL9IyS-EngI_jeP4piYf-45" source="yL9IyS-EngI_jeP4piYf-9" target="yL9IyS-EngI_jeP4piYf-10">
          <mxGeometry width="160" relative="1" as="geometry">
            <mxPoint x="310" y="360" as="sourcePoint" />
            <mxPoint x="470" y="360" as="targetPoint" />
            <Array as="points">
              <mxPoint x="96" y="25" />
            </Array>
          </mxGeometry>
        </mxCell>
        <mxCell id="yL9IyS-EngI_jeP4piYf-18" value="" style="endArrow=diamondThin;endFill=1;endSize=24;html=1;rounded=0;exitX=1;exitY=0.5;exitDx=0;exitDy=0;entryX=0.5;entryY=0;entryDx=0;entryDy=0;" edge="1" parent="yL9IyS-EngI_jeP4piYf-45" source="yL9IyS-EngI_jeP4piYf-9" target="yL9IyS-EngI_jeP4piYf-13">
          <mxGeometry width="160" relative="1" as="geometry">
            <mxPoint x="370" y="300" as="sourcePoint" />
            <mxPoint x="530" y="300" as="targetPoint" />
            <Array as="points">
              <mxPoint x="445" y="25" />
            </Array>
          </mxGeometry>
        </mxCell>
        <mxCell id="yL9IyS-EngI_jeP4piYf-20" value="" style="endArrow=diamondThin;endFill=1;endSize=24;html=1;rounded=0;entryX=0.5;entryY=0;entryDx=0;entryDy=0;" edge="1" parent="yL9IyS-EngI_jeP4piYf-45" source="yL9IyS-EngI_jeP4piYf-9" target="yL9IyS-EngI_jeP4piYf-12">
          <mxGeometry width="160" relative="1" as="geometry">
            <mxPoint x="170" y="300" as="sourcePoint" />
            <mxPoint x="330" y="300" as="targetPoint" />
          </mxGeometry>
        </mxCell>
        <mxCell id="yL9IyS-EngI_jeP4piYf-22" value="Extends" style="endArrow=block;endSize=16;endFill=0;html=1;rounded=0;" edge="1" parent="yL9IyS-EngI_jeP4piYf-45" source="yL9IyS-EngI_jeP4piYf-14" target="yL9IyS-EngI_jeP4piYf-10">
          <mxGeometry width="160" relative="1" as="geometry">
            <mxPoint x="130" y="270" as="sourcePoint" />
            <mxPoint x="290" y="270" as="targetPoint" />
          </mxGeometry>
        </mxCell>
        <mxCell id="yL9IyS-EngI_jeP4piYf-24" value="" style="endArrow=diamondThin;endFill=1;endSize=24;html=1;rounded=0;" edge="1" parent="yL9IyS-EngI_jeP4piYf-45" source="yL9IyS-EngI_jeP4piYf-12" target="yL9IyS-EngI_jeP4piYf-15">
          <mxGeometry width="160" relative="1" as="geometry">
            <mxPoint x="310" y="270" as="sourcePoint" />
            <mxPoint x="470" y="270" as="targetPoint" />
          </mxGeometry>
        </mxCell>
        <mxCell id="yL9IyS-EngI_jeP4piYf-25" value="" style="endArrow=diamondThin;endFill=1;endSize=24;html=1;rounded=0;" edge="1" parent="yL9IyS-EngI_jeP4piYf-45" source="yL9IyS-EngI_jeP4piYf-13" target="yL9IyS-EngI_jeP4piYf-16">
          <mxGeometry width="160" relative="1" as="geometry">
            <mxPoint x="441" y="280" as="sourcePoint" />
            <mxPoint x="601" y="280" as="targetPoint" />
          </mxGeometry>
        </mxCell>
        <mxCell id="yL9IyS-EngI_jeP4piYf-26" value="Area" style="html=1;whiteSpace=wrap;" vertex="1" parent="yL9IyS-EngI_jeP4piYf-45">
          <mxGeometry x="41" y="270" width="110" height="50" as="geometry" />
        </mxCell>
        <mxCell id="yL9IyS-EngI_jeP4piYf-30" value="" style="endArrow=diamondThin;endFill=0;endSize=24;html=1;rounded=0;" edge="1" parent="yL9IyS-EngI_jeP4piYf-45" source="yL9IyS-EngI_jeP4piYf-14" target="yL9IyS-EngI_jeP4piYf-26">
          <mxGeometry width="160" relative="1" as="geometry">
            <mxPoint x="160" y="370" as="sourcePoint" />
            <mxPoint x="320" y="370" as="targetPoint" />
          </mxGeometry>
        </mxCell>
        <mxCell id="yL9IyS-EngI_jeP4piYf-32" value="" style="endArrow=diamondThin;endFill=0;endSize=24;html=1;rounded=0;" edge="1" parent="yL9IyS-EngI_jeP4piYf-45" source="yL9IyS-EngI_jeP4piYf-26" target="yL9IyS-EngI_jeP4piYf-10">
          <mxGeometry width="160" relative="1" as="geometry">
            <mxPoint x="120" y="370" as="sourcePoint" />
            <mxPoint x="280" y="370" as="targetPoint" />
            <Array as="points">
              <mxPoint y="295" />
              <mxPoint y="115" />
            </Array>
          </mxGeometry>
        </mxCell>
        <mxCell id="yL9IyS-EngI_jeP4piYf-33" value="" style="endArrow=diamondThin;endFill=1;endSize=24;html=1;rounded=0;exitX=0.75;exitY=1;exitDx=0;exitDy=0;entryX=0.25;entryY=1;entryDx=0;entryDy=0;" edge="1" parent="yL9IyS-EngI_jeP4piYf-45" source="yL9IyS-EngI_jeP4piYf-16" target="yL9IyS-EngI_jeP4piYf-16">
          <mxGeometry width="160" relative="1" as="geometry">
            <mxPoint x="642" y="140" as="sourcePoint" />
            <mxPoint x="642" y="190" as="targetPoint" />
            <Array as="points">
              <mxPoint x="472" y="270" />
              <mxPoint x="418" y="270" />
            </Array>
          </mxGeometry>
        </mxCell>
        <mxCell id="yL9IyS-EngI_jeP4piYf-38" value="" style="endArrow=diamondThin;endFill=1;endSize=24;html=1;rounded=0;exitX=0.75;exitY=1;exitDx=0;exitDy=0;entryX=0.25;entryY=1;entryDx=0;entryDy=0;" edge="1" parent="yL9IyS-EngI_jeP4piYf-45" source="yL9IyS-EngI_jeP4piYf-15" target="yL9IyS-EngI_jeP4piYf-15">
          <mxGeometry width="160" relative="1" as="geometry">
            <mxPoint x="316" y="260" as="sourcePoint" />
            <mxPoint x="261" y="260" as="targetPoint" />
            <Array as="points">
              <mxPoint x="304" y="270" />
              <mxPoint x="251" y="270" />
            </Array>
          </mxGeometry>
        </mxCell>
        <mxCell id="yL9IyS-EngI_jeP4piYf-40" value="" style="endArrow=diamondThin;endFill=0;endSize=24;html=1;rounded=0;exitX=1;exitY=0.25;exitDx=0;exitDy=0;entryX=0;entryY=0.25;entryDx=0;entryDy=0;" edge="1" parent="yL9IyS-EngI_jeP4piYf-45" source="yL9IyS-EngI_jeP4piYf-10" target="yL9IyS-EngI_jeP4piYf-12">
          <mxGeometry width="160" relative="1" as="geometry">
            <mxPoint x="171" y="295" as="sourcePoint" />
            <mxPoint x="331" y="295" as="targetPoint" />
          </mxGeometry>
        </mxCell>
        <mxCell id="yL9IyS-EngI_jeP4piYf-42" value="" style="endArrow=diamondThin;endFill=0;endSize=24;html=1;rounded=0;entryX=0;entryY=0.5;entryDx=0;entryDy=0;exitX=1;exitY=0.75;exitDx=0;exitDy=0;" edge="1" parent="yL9IyS-EngI_jeP4piYf-45" source="yL9IyS-EngI_jeP4piYf-10" target="yL9IyS-EngI_jeP4piYf-15">
          <mxGeometry width="160" relative="1" as="geometry">
            <mxPoint x="151" y="128" as="sourcePoint" />
            <mxPoint x="221" y="193" as="targetPoint" />
            <Array as="points">
              <mxPoint x="181" y="128" />
              <mxPoint x="181" y="205" />
            </Array>
          </mxGeometry>
        </mxCell>
        <mxCell id="yL9IyS-EngI_jeP4piYf-43" value="" style="endArrow=diamondThin;endFill=0;endSize=24;html=1;rounded=0;exitX=0;exitY=0.5;exitDx=0;exitDy=0;entryX=1;entryY=0.5;entryDx=0;entryDy=0;" edge="1" parent="yL9IyS-EngI_jeP4piYf-45" source="yL9IyS-EngI_jeP4piYf-16" target="yL9IyS-EngI_jeP4piYf-12">
          <mxGeometry width="160" relative="1" as="geometry">
            <mxPoint x="281" y="310" as="sourcePoint" />
            <mxPoint x="441" y="310" as="targetPoint" />
            <Array as="points">
              <mxPoint x="371" y="205" />
              <mxPoint x="371" y="115" />
            </Array>
          </mxGeometry>
        </mxCell>
      </root>
    </mxGraphModel>
  </diagram>
</mxfile>
